<?xml version="1.0" standalone="no"?>
<!DOCTYPE svg PUBLIC "-//W3C//DTD SVG 20010904//EN"
 "http://www.w3.org/TR/2001/REC-SVG-20010904/DTD/svg10.dtd">
<svg version="1.0" xmlns="http://www.w3.org/2000/svg"
 width="500.000000pt" height="500.000000pt" viewBox="0 0 500.000000 500.000000"
 preserveAspectRatio="xMidYMid meet">
<metadata>
Created by potrace 1.11, written by Peter Selinger 2001-2013
</metadata>
<g transform="translate(0.000000,500.000000) scale(0.100000,-0.100000)"
fill="#000000" stroke="none">
<path d="M2007 4714 c-1 -2 -27 -5 -57 -8 -30 -4 -73 -11 -95 -16 -22 -6 -55
-13 -74 -16 -19 -2 -41 -10 -48 -16 -7 -6 -13 -8 -13 -4 0 3 -15 0 -34 -8 -19
-8 -37 -12 -40 -8 -3 3 -6 1 -6 -5 0 -6 -13 -13 -28 -16 -15 -3 -61 -25 -101
-49 -40 -24 -81 -48 -92 -54 -11 -6 -36 -26 -56 -43 -19 -17 -36 -31 -38 -31
-7 0 -65 -62 -65 -70 0 -5 -3 -10 -8 -12 -25 -11 -117 -160 -105 -172 3 -3 2
-6 -4 -6 -13 0 -44 -102 -60 -195 -4 -22 -8 -177 -10 -345 -2 -168 -3 -305 -4
-305 0 0 -1 -35 -2 -77 -1 -43 -5 -78 -9 -78 -4 0 -5 -8 -3 -18 2 -10 -3 -44
-10 -75 -7 -31 -12 -57 -10 -57 2 0 -2 -12 -10 -27 -8 -15 -12 -30 -10 -34 3
-4 -2 -12 -10 -19 -8 -7 -15 -17 -15 -23 0 -13 -69 -109 -89 -123 -9 -7 -27
-22 -41 -34 -28 -24 -153 -85 -195 -95 -5 -2 -30 -8 -55 -15 -63 -17 -80 -21
-118 -25 -18 -2 -36 -6 -40 -9 -6 -3 -81 -15 -132 -20 -23 -3 -41 -16 -35 -27
4 -5 1 -9 -5 -9 -7 0 -8 -6 -2 -17 4 -10 7 -40 5 -68 -4 -83 0 -91 49 -93 39
-1 83 -8 83 -12 0 -1 16 -3 35 -5 33 -3 55 -7 105 -19 11 -2 42 -9 69 -16 27
-6 54 -14 60 -18 6 -3 17 -7 25 -9 20 -3 105 -46 109 -55 2 -5 10 -8 18 -8 8
0 14 -4 14 -10 0 -5 5 -10 10 -10 26 0 105 -99 140 -176 20 -43 29 -71 45
-138 7 -30 16 -107 20 -173 3 -33 5 -65 6 -70 1 -4 1 -12 0 -18 -2 -11 0 -498
2 -577 1 -27 4 -48 8 -48 4 0 6 -8 5 -18 -3 -16 8 -69 21 -102 3 -8 7 -22 8
-30 5 -27 30 -85 40 -92 6 -4 6 -8 2 -8 -5 0 1 -14 13 -30 12 -17 19 -30 16
-30 -6 0 15 -28 41 -55 7 -8 13 -16 13 -20 0 -12 118 -119 177 -160 75 -53
183 -105 278 -135 39 -13 77 -25 85 -28 25 -9 36 -11 150 -28 19 -3 58 -7 85
-9 28 -2 51 -4 53 -6 7 -6 29 -4 39 4 9 6 13 5 13 -3 0 -32 14 5 17 43 1 23 4
72 7 110 2 37 1 67 -2 68 -4 1 -25 3 -47 5 -150 12 -256 34 -345 71 -8 3 -17
7 -20 8 -21 5 -110 51 -110 57 0 4 -13 14 -29 23 -37 18 -132 115 -152 152 -8
15 -20 34 -27 42 -7 7 -16 26 -19 42 -3 16 -9 29 -13 29 -3 0 -7 6 -8 13 0 6
-3 23 -7 37 -16 61 -26 123 -21 136 3 8 2 14 -2 14 -4 0 -8 150 -8 333 -2 326
-5 435 -16 453 -4 5 -9 26 -12 46 -5 33 -12 54 -42 133 -4 11 -6 23 -6 28 1 4
-2 7 -7 7 -5 0 -16 16 -25 35 -9 19 -22 35 -28 35 -6 0 -8 3 -5 7 9 8 -94 109
-148 145 -45 30 -136 73 -147 70 -5 -1 -8 2 -8 8 0 6 -3 9 -7 8 -5 0 -15 1
-23 5 -8 3 -28 9 -45 14 -24 8 -30 15 -31 41 -1 31 9 40 52 46 7 1 17 5 20 9
4 4 17 7 29 7 12 0 25 3 29 7 3 4 13 8 21 9 31 5 124 66 176 116 61 59 125
138 112 138 -4 0 -3 4 2 8 12 8 39 64 37 75 -1 4 3 7 9 7 5 0 7 5 4 10 -3 6
-1 10 5 10 6 0 8 5 5 10 -4 6 -1 17 5 25 7 8 9 15 5 15 -4 0 -2 7 5 15 7 8 10
15 7 15 -3 0 -1 15 4 33 18 62 22 144 24 477 2 184 3 335 4 335 1 0 4 25 6 56
2 31 8 66 15 78 6 12 8 26 5 31 -3 5 -1 11 5 15 5 3 10 15 10 26 0 10 5 19 11
19 5 0 8 4 4 9 -3 5 2 17 11 25 8 9 13 16 9 16 -6 0 20 41 50 78 29 37 92 96
129 120 54 37 126 74 126 64 0 -4 4 -2 8 5 8 12 165 62 217 68 17 2 46 6 65 9
19 4 58 7 87 8 l52 3 -3 61 c-2 34 -6 66 -10 73 -4 6 -1 11 6 11 8 0 9 3 3 8
-5 4 -10 21 -10 37 l0 30 -63 0 c-34 1 -64 0 -65 -1z"/>
<path d="M2869 4717 c-1 -1 -3 -11 -4 -22 -1 -11 -5 -30 -9 -42 -5 -15 -3 -23
5 -23 8 0 8 -4 2 -12 -6 -7 -11 -38 -12 -69 -2 -53 0 -57 21 -57 41 0 142 -10
171 -16 15 -3 38 -8 52 -10 114 -20 297 -104 346 -158 9 -10 19 -18 22 -18 8
0 67 -60 67 -69 0 -4 9 -16 20 -26 11 -10 20 -24 20 -32 0 -7 5 -13 11 -13 5
0 8 -4 4 -9 -3 -5 -1 -12 5 -16 6 -4 8 -11 5 -16 -4 -5 -2 -9 4 -9 9 0 36 -75
46 -129 2 -9 4 -16 5 -16 1 0 3 -21 4 -47 1 -26 5 -50 9 -54 3 -4 2 -15 -4
-25 -6 -12 -6 -19 0 -19 11 0 9 -39 -2 -57 -4 -6 -3 -15 3 -18 8 -5 8 -11 0
-20 -6 -7 -7 -16 -2 -19 9 -6 9 -67 -1 -83 -3 -5 -2 -15 3 -23 5 -8 5 -21 -1
-31 -5 -10 -5 -20 -1 -23 10 -6 9 -87 -1 -103 -4 -7 -4 -14 0 -16 9 -6 9 -164
0 -173 -3 -4 -2 -15 4 -26 6 -11 8 -26 5 -34 -3 -8 0 -14 6 -14 7 0 7 -4 -1
-13 -6 -8 -8 -17 -4 -21 4 -3 8 -14 9 -24 5 -46 17 -98 23 -102 3 -3 7 -15 7
-27 2 -33 83 -188 119 -227 18 -20 30 -38 27 -41 -3 -3 2 -5 11 -5 8 0 19 -9
22 -20 3 -11 12 -20 20 -20 7 0 15 -4 17 -9 4 -11 91 -66 101 -63 4 1 7 -2 7
-8 0 -6 3 -9 8 -8 4 0 15 -2 25 -5 9 -4 25 -10 35 -14 9 -3 20 -7 25 -8 4 -2
9 -4 12 -5 5 -2 30 -6 59 -9 33 -3 20 -88 -14 -86 -8 1 -25 -5 -37 -13 -12 -8
-27 -11 -33 -7 -5 3 -10 3 -10 -2 0 -4 -20 -16 -44 -26 -24 -10 -66 -32 -92
-50 -27 -17 -52 -30 -56 -29 -5 1 -8 -4 -9 -10 0 -7 -22 -31 -48 -53 -27 -22
-47 -43 -45 -46 2 -3 -5 -15 -15 -26 -10 -11 -22 -29 -25 -41 -4 -12 -11 -22
-16 -22 -6 0 -18 -30 -24 -60 -1 -3 -4 -9 -7 -15 -4 -5 -10 -23 -14 -40 -12
-44 -12 -45 -15 -50 -1 -3 -3 -8 -4 -12 -1 -5 -4 -12 -7 -18 -3 -5 -5 -27 -4
-47 0 -21 -3 -38 -6 -38 -3 0 -5 -12 -3 -27 1 -15 -2 -36 -8 -46 -7 -13 -7
-17 0 -13 12 7 10 -32 -1 -51 -4 -6 -4 -14 1 -17 10 -6 9 -87 -1 -103 -4 -6
-3 -13 0 -17 9 -9 11 -86 2 -81 -3 3 -5 -7 -3 -20 2 -14 6 -36 8 -50 2 -14 -1
-28 -6 -31 -4 -3 -5 -11 -1 -17 10 -17 11 -87 1 -87 -5 0 -5 -8 -1 -18 10 -21
10 -43 0 -59 -5 -8 -3 -13 3 -13 6 0 8 -4 5 -10 -3 -5 -6 -34 -6 -65 -1 -30
-4 -55 -8 -55 -4 0 -6 -16 -6 -35 1 -20 -2 -38 -7 -41 -5 -3 -6 -10 -3 -15 4
-5 1 -9 -5 -9 -6 0 -8 -4 -5 -10 3 -5 2 -10 -4 -10 -6 0 -8 -7 -5 -15 3 -8 -1
-22 -10 -31 -9 -8 -14 -19 -11 -24 3 -4 -2 -13 -10 -20 -8 -7 -15 -18 -15 -25
0 -6 -9 -20 -20 -30 -11 -10 -18 -20 -16 -22 6 -6 -68 -80 -76 -76 -5 2 -8 -1
-8 -7 0 -26 -218 -140 -293 -154 -15 -2 -30 -7 -35 -10 -4 -2 -26 -7 -47 -10
-22 -3 -58 -8 -80 -11 -22 -4 -60 -8 -85 -10 -25 -1 -49 -3 -54 -4 -4 -1 -6
-12 -4 -26 3 -14 1 -28 -3 -31 -5 -3 -5 -13 0 -22 5 -9 8 -28 7 -42 -1 -14 1
-33 6 -42 5 -10 4 -19 -2 -23 -5 -3 -10 -11 -10 -16 0 -6 5 -7 10 -4 6 3 10 2
10 -4 0 -14 31 -19 58 -9 13 4 22 4 22 -3 0 -6 5 -7 13 -2 11 7 26 9 110 15
20 1 37 7 37 12 0 5 2 7 5 4 3 -3 34 1 68 9 34 8 69 15 77 17 9 1 20 4 25 7 6
3 36 14 68 24 31 11 57 23 57 28 0 4 4 6 9 2 5 -3 12 -1 16 5 4 6 11 8 16 5 5
-4 9 -2 9 4 0 5 16 15 35 21 19 6 35 15 35 19 0 3 16 15 35 25 19 11 35 23 35
28 0 4 5 8 11 8 15 0 60 36 53 43 -3 3 4 8 15 12 12 3 21 14 21 22 0 9 3 14 6
10 4 -3 22 13 40 36 19 23 39 47 44 54 5 6 20 31 32 55 12 24 27 46 32 50 6 4
8 8 4 8 -4 0 1 19 11 43 19 44 43 134 47 177 1 14 3 25 4 25 1 0 4 50 5 110 2
61 4 115 5 120 1 6 1 15 0 20 -3 13 -3 127 0 140 1 6 1 15 0 20 -5 25 -2 134
4 143 3 6 2 14 -4 17 -8 5 -8 11 0 20 6 7 7 16 2 19 -7 4 -9 51 -2 51 1 0 3
29 5 65 3 36 7 83 10 105 3 22 6 46 7 53 1 6 5 12 10 12 4 0 7 3 7 8 -5 28 4
63 19 78 9 10 16 18 14 18 -8 2 11 56 18 56 5 0 12 9 15 21 8 25 98 119 114
119 6 0 11 5 11 12 0 6 3 8 7 5 3 -4 13 -1 22 7 9 8 23 16 31 18 8 2 21 9 28
16 8 7 18 10 23 7 5 -4 9 -1 9 4 0 6 9 11 21 11 11 0 29 5 41 11 11 6 32 12
46 14 15 3 38 7 52 11 14 3 35 6 48 7 12 1 22 5 22 9 0 5 12 6 27 4 14 -3 31
-2 37 1 6 4 24 8 41 10 16 1 41 4 55 7 14 2 30 5 35 5 10 1 15 200 5 202 -18
3 -60 8 -87 10 -18 2 -33 6 -33 9 0 3 -15 6 -33 6 -56 3 -87 8 -87 16 0 4 -9
5 -20 3 -11 -2 -20 1 -20 6 0 6 -4 8 -8 5 -8 -5 -86 15 -122 31 -18 8 -19 8
-52 17 -16 5 -28 12 -28 17 0 5 -9 9 -20 9 -11 0 -20 4 -20 9 0 5 -8 12 -19
16 -17 5 -77 60 -112 102 -27 33 -76 134 -82 168 -2 11 -8 28 -12 39 -4 10 -9
38 -9 62 -1 24 -4 44 -7 44 -3 0 -6 26 -7 58 0 31 -1 62 -2 67 -2 16 -2 449 0
460 1 6 2 12 1 15 -1 3 -3 39 -4 80 -1 41 -6 81 -11 89 -7 10 -6 12 4 6 9 -5
11 -4 6 4 -5 7 -10 27 -13 44 -6 37 -11 60 -13 67 -1 3 -2 9 -1 13 1 4 -5 20
-14 36 -8 16 -11 31 -8 35 4 3 2 6 -3 6 -5 0 -10 10 -11 22 -1 11 -8 25 -15
29 -7 5 -9 9 -4 9 5 0 1 8 -8 19 -9 10 -18 28 -19 39 0 11 -4 19 -7 17 -9 -5
-45 57 -41 70 1 5 -1 7 -5 3 -7 -8 -44 28 -44 44 0 4 -4 8 -10 8 -5 0 -25 15
-44 33 -41 39 -75 67 -81 67 -2 0 -24 14 -48 30 -25 17 -50 30 -56 30 -6 0
-11 5 -11 11 0 5 -4 7 -10 4 -5 -3 -10 -1 -10 5 0 6 -4 8 -10 5 -5 -3 -10 -1
-10 4 0 6 -6 11 -14 11 -8 0 -27 5 -43 12 -15 6 -31 11 -35 10 -5 -1 -8 2 -8
8 0 6 -3 9 -7 8 -5 -1 -27 4 -51 11 -74 21 -217 49 -224 44 -5 -2 -13 -1 -19
3 -10 6 -157 16 -160 11z"/>
</g>
</svg>
