<?xml version="1.0" encoding="utf-8"?>
<!-- Generator: Adobe Illustrator 25.0.0, SVG Export Plug-In . SVG Version: 6.00 Build 0)  -->
<svg version="1.1" id="Layer_1" xmlns="http://www.w3.org/2000/svg" xmlns:xlink="http://www.w3.org/1999/xlink" x="0px" y="0px"
	 viewBox="0 0 165.5 106.5" style="enable-background:new 0 0 165.5 106.5;" xml:space="preserve">
<style type="text/css">
	.st0{fill:#FFFFFF;}
	.st1{fill:none;stroke:#F05353;stroke-miterlimit:10;}
	.st2{fill:#F05353;}
	.st3{fill:#1E1E1E;}
</style>
<g>
	<g>
		<path class="st1" d="M50.8,95.3c1.6,0,1.6-2.5,0-2.5C49.3,92.9,49.3,95.3,50.8,95.3"/>
	</g>
	<g>
		<path class="st3" d="M67.5,30c0,1.9-0.5,3.5-1.4,4.9c-0.9,1.4-2.2,2.4-3.9,3.2C61,38.6,59.6,39,58,39.2c-1.6,0.2-3.4,0.3-5.7,0.3
			c-0.6,0-1.1,0-1.5,0c-0.4,0-0.8,0-1.2,0c0-0.8,0-2.4,0-4.7c0-2.3,0-5.3,0-9.1c0-2.8,0-5.1,0-7.2c0-2,0-3.8,0-5.4h5.5l-0.1,8
			c1.9,0,3.4,0.2,4.7,0.5c1.3,0.3,2.4,0.8,3.4,1.3c1.4,0.7,2.5,1.7,3.2,2.9C67.1,27.2,67.5,28.5,67.5,30 M62,29.9
			c0-1-0.3-1.9-0.8-2.7s-1.3-1.3-2.2-1.7c-0.5-0.2-1.1-0.4-1.7-0.5c-0.6-0.1-1.2-0.1-1.8-0.1h-0.3h-0.3c0,0.2,0,0.9,0,2.2
			c0,1.2,0,2.2,0,3.1c0,1.3,0,2.4,0,3.1c0,0.7,0,1.4,0,2.2c0.9,0,1.8-0.1,2.6-0.2c0.8-0.1,1.5-0.4,2-0.7c0.9-0.5,1.5-1.1,1.9-1.8
			C61.8,32,62,31,62,29.9"/>
		<path class="st3" d="M73.9,39.4h-5.5c0-0.8,0-2.6,0-5.3c0-2.7,0-5.4,0-8.3c0-1.6,0-3.5,0-5.7c0-2.2,0-4.4,0-6.9h5.5
			c0,2,0,4.1,0,6.2s0,4.2,0,6.1c0,3.1,0,5.8,0,8.2C73.9,36.1,73.9,38,73.9,39.4"/>
		<path class="st3" d="M91.5,29.9c0,2.9,0,5.2,0,6.7c0,1.6,0,2.5,0,2.7c-0.2,0-1,0.1-2.3,0.2c-1.4,0.1-2.8,0.1-4.3,0.1
			c-1,0-2.1-0.1-3.4-0.2c-1.3-0.2-2.3-0.4-3.2-0.8c-1.1-0.5-2-1.1-2.6-1.9C75,35.9,74.7,35,74.7,34c0-1.1,0.3-2.1,1-2.9
			c0.7-0.8,1.7-1.5,3.1-2c0.9-0.4,2.1-0.6,3.5-0.8c1.4-0.2,2.6-0.3,3.7-0.4c0-0.6-0.2-1.2-0.5-1.6c-0.3-0.4-0.8-0.7-1.5-1
			c-0.5-0.2-1-0.3-1.6-0.3c-0.6-0.1-1.3-0.1-2.1-0.1c-0.7,0-1.3,0-1.9,0c-0.5,0-1.1,0-1.7,0.1l0.5-4c0.2,0,0.6,0,1.1,0
			c0.5,0,1.3,0,2.2,0c2,0,3.7,0.2,5,0.5c1.3,0.3,2.5,0.9,3.4,1.7c0.8,0.7,1.5,1.6,1.8,2.6C91.3,26.8,91.5,28.2,91.5,29.9 M86.3,33.2
			v-1.3c0-0.5,0-1,0-1.6c-0.3,0-1,0.1-1.8,0.2c-0.9,0.1-1.7,0.3-2.4,0.6c-0.5,0.2-0.9,0.5-1.3,0.9c-0.4,0.4-0.6,0.9-0.6,1.5
			c0,0.7,0.2,1.2,0.5,1.6c0.4,0.4,0.8,0.7,1.4,0.9c0.4,0.1,0.9,0.2,1.4,0.3c0.5,0.1,1.1,0.1,1.7,0.1c0.2,0,0.3,0,0.5,0
			c0.2,0,0.4,0,0.6,0c0-0.2,0-0.5,0-1.1C86.3,34.7,86.3,34,86.3,33.2"/>
		<path class="st3" d="M107.1,35.2l-0.5,4.3h-0.5h-0.5c-2,0-3.8-0.2-5.3-0.6c-1.5-0.4-2.9-0.9-4-1.6c-1.3-0.8-2.4-1.8-3.1-3
			c-0.7-1.2-1.1-2.6-1.1-4.1c0-1.5,0.4-2.8,1.1-3.9c0.7-1.1,1.7-2.1,2.8-2.9c1.2-0.8,2.6-1.4,4.3-1.8c1.6-0.4,3.5-0.6,5.4-0.6h0.5
			h0.3l0.5,4.3h-0.4h-0.3c-0.9,0-1.7,0.1-2.6,0.2c-0.9,0.1-1.7,0.3-2.5,0.6c-1.1,0.4-1.9,0.9-2.5,1.6c-0.6,0.7-0.9,1.6-0.9,2.5
			c0,1,0.3,1.9,0.9,2.6c0.6,0.7,1.4,1.2,2.4,1.6c0.7,0.3,1.6,0.5,2.6,0.6c1,0.1,1.8,0.2,2.6,0.2h0.6H107.1z"/>
		<path class="st3" d="M113.1,39.4h-5.5c0-0.4,0-1.9,0-4.5c0-2.6,0-5.7,0-9.4c0-1.6,0-3.4,0-5.5c0-2.1,0-4.3,0-6.8h5.5
			c0,2.3,0,4.6-0.1,6.9c0,2.3,0,4.2,0,5.6c0,1.9,0,4.6,0,7.9C113.1,36.9,113.1,38.8,113.1,39.4 M126.2,38.7l-4.5,1.9
			c-2.3-3-4.3-5-5.8-6.8c-1.5-1.8-2.5-3-2.9-3.5v0c0.3-0.5,1.3-1.7,2.9-3.7c1.6-2,3-3.9,4.3-5.8l4.9,1.9c-1.2,1.6-2.3,3.1-3.5,4.5
			c-1.1,1.5-1.9,2.4-2.1,2.8v0C122.2,33.4,124.4,36.1,126.2,38.7"/>
	</g>
</g>
<g>
	<path class="st3" d="M146.6,84.7V74.2c0-3.6,0.4-6.6,1.1-8.8c0.7-2.3,1.9-4.2,3.5-5.5c1.7-1.3,3.8-2.3,6.3-2.9c2.2-0.5,4.9-1,8-1.3
		v-4.7c-3-0.4-5.6-0.9-7.9-1.4c-2.6-0.7-4.7-1.6-6.3-2.9c-1.7-1.4-2.9-3.2-3.7-5.5c-0.7-2.1-1-5.1-1-8.8V21.7c0-7-2.4-12.2-7.3-16
		c-4.7-3.7-10.8-5.6-18.2-5.7l-0.3,5.3c5.8,0.2,10.4,1.5,13.9,4.1c3.7,2.8,5.6,7,5.6,12.3v12.2c0,5.1,1.2,9.3,3.4,12.5
		c2.3,3.1,5.2,5,9,5.8l0.8,0.2v1.7l-0.7,0.2c-4.4,1.4-7.6,3.5-9.6,6.5c-2,3-3,6.9-3,11.8v12.2c0,5.3-1.9,9.5-5.6,12.3
		c-3.4,2.6-8.1,4-13.9,4.2l0.3,5.3c7.4-0.1,13.5-2.1,18.2-5.7C144.2,97,146.6,91.7,146.6,84.7z"/>
	<path class="st3" d="M18.9,84.7V74.2c0-3.6-0.4-6.6-1.1-8.8c-0.7-2.3-1.9-4.2-3.5-5.5c-1.7-1.3-3.8-2.3-6.3-2.9
		c-2.2-0.5-4.9-1-8-1.3l0-4.7c3-0.4,5.6-0.9,7.9-1.4c2.6-0.7,4.7-1.6,6.3-2.9c1.7-1.4,2.9-3.2,3.7-5.5c0.7-2.1,1-5.1,1-8.8V21.7
		c0-7,2.4-12.2,7.3-16C30.9,2.1,37,0.1,44.4,0l0.3,5.3C39,5.5,34.3,6.8,30.9,9.4c-3.7,2.8-5.6,7-5.6,12.3v12.2
		c0,5.1-1.2,9.3-3.4,12.5c-2.3,3.1-5.2,5-9,5.8L12,52.3v1.7l0.7,0.2c4.4,1.4,7.6,3.5,9.6,6.5c2,3,3,6.9,3,11.8v12.2
		c0,5.3,1.9,9.5,5.6,12.3c3.4,2.6,8.1,4,13.9,4.2l-0.3,5.3c-7.4-0.1-13.5-2.1-18.2-5.7C21.3,97,18.9,91.7,18.9,84.7z"/>
</g>
<path class="st3" d="M66.1,68.7c-0.3,0-0.7,0-1.2,0s-1,0-1.4,0c-2.5,0-4.6-0.1-6.1-0.3s-2.9-0.6-4.1-1.2c-1.7-0.8-2.9-1.8-3.8-3.1
	c-0.9-1.3-1.3-2.8-1.3-4.4c0-1.7,0.5-3.3,1.4-4.6s2.3-2.5,4.2-3.2c1-0.4,2.1-0.8,3.3-1s2.4-0.3,3.5-0.4l-0.1-8h5.5
	c0,0.3,0,1.9,0,4.6s0,5.7,0,9.1c0,2.9,0,5.4,0,7.5C66.1,65.6,66.1,67.3,66.1,68.7z M60.9,57.5c0-0.4,0-0.9,0-1.4c0-0.5,0-1,0-1.5
	c-0.8,0-1.6,0.1-2.4,0.2c-0.7,0.1-1.4,0.3-2.1,0.7c-0.9,0.4-1.5,1-2,1.8c-0.5,0.8-0.7,1.7-0.7,2.7c0,0.9,0.2,1.7,0.6,2.4
	c0.4,0.7,1,1.3,1.8,1.7c0.6,0.3,1.3,0.6,2.1,0.8s1.5,0.2,2.3,0.2c0.1,0,0.1,0,0.2,0s0.1,0,0.2,0c0-0.1,0-0.8,0-2.1
	C60.9,61.6,60.9,59.8,60.9,57.5z"/>
<path class="st3" d="M84.7,59.4H72.3c0,0.9,0.3,1.8,0.8,2.5c0.5,0.8,1.3,1.4,2.3,1.9c0.7,0.3,1.5,0.6,2.3,0.7s1.7,0.2,2.6,0.2
	c0.8,0,1.4,0,2,0c0.6,0,1,0,1.2-0.1L83,68.6c-0.2,0-0.7,0.1-1.3,0.1c-0.6,0-1.3,0-2,0c-2.1,0-3.9-0.2-5.5-0.7
	c-1.6-0.5-3-1.2-4.1-2.1c-1-0.8-1.7-1.8-2.3-2.9c-0.6-1.2-0.9-2.4-0.9-3.8c0-1.4,0.2-2.6,0.6-3.7c0.4-1.1,1.1-2.1,2.1-3.1
	c0.8-0.8,1.8-1.5,3-1.9c1.2-0.4,2.4-0.7,3.6-0.7c1.3,0,2.4,0.2,3.4,0.5c1,0.4,1.9,0.9,2.6,1.6c0.9,0.9,1.5,1.9,1.9,3.1
	C84.5,56.3,84.7,57.8,84.7,59.4z M79.5,57c-0.1-1.2-0.5-2.1-1.1-2.8c-0.6-0.7-1.5-1-2.5-1c-1,0-1.9,0.3-2.6,1
	c-0.7,0.7-1.1,1.6-1.3,2.8H79.5z"/>
<path class="st3" d="M102.8,51.3c-1.7,3.8-3.2,7.4-4.6,10.8c-1.4,3.4-2.3,5.5-2.7,6.4h-5.1c-0.4-1-1.3-3.1-2.7-6.3
	c-1.4-3.2-2.9-6.8-4.7-10.8l5.5-1.5L93.1,62h0.1l4.5-12L102.8,51.3z"/>
<path class="st3" d="M115.5,63c0,1-0.3,1.8-0.8,2.6c-0.5,0.7-1.2,1.3-2.1,1.8c-0.9,0.5-1.9,0.8-3.2,1.1c-1.3,0.2-2.6,0.3-3.9,0.3
	c-0.9,0-1.7,0-2.3,0c-0.7,0-1.2-0.1-1.4-0.1l-0.4-3.9c0.3,0,0.7,0,1.4,0.1c0.6,0,1.3,0,2.1,0c0.4,0,0.8,0,1.3-0.1
	c0.5,0,1-0.1,1.4-0.3c0.7-0.2,1.1-0.4,1.3-0.7c0.2-0.3,0.3-0.6,0.3-0.9c0-0.3-0.1-0.6-0.3-0.8c-0.2-0.2-0.6-0.5-1.1-0.7
	c-0.4-0.2-0.9-0.5-1.6-0.8c-0.6-0.3-1.2-0.6-1.7-0.9c-0.8-0.5-1.4-1.1-1.8-1.8c-0.4-0.7-0.6-1.4-0.6-2.3c0-0.9,0.3-1.7,0.8-2.5
	c0.5-0.7,1.3-1.4,2.3-1.9c0.9-0.4,1.9-0.7,3-0.9c1.2-0.2,2.3-0.3,3.3-0.3c0.9,0,1.6,0,2.1,0c0.6,0,1,0,1.1,0l0.5,3.9
	c-0.2,0-0.5,0-1,0c-0.5,0-1.1,0-1.8,0c-0.5,0-1,0-1.4,0.1s-0.9,0.2-1.2,0.3c-0.5,0.2-0.8,0.4-1,0.6c-0.2,0.2-0.3,0.5-0.3,0.8
	c0,0.3,0.1,0.6,0.4,0.9c0.3,0.2,0.6,0.5,1.1,0.7c0.4,0.2,1,0.5,1.7,0.8c0.7,0.3,1.2,0.6,1.6,0.8c0.8,0.5,1.4,1.1,1.9,1.7
	C115.3,61.4,115.5,62.1,115.5,63z"/>
<g>
	<path class="st2" d="M69.8,96.1h-2.7V94l0,0c-0.8,0.5-1.9,1.1-3.1,1.7c-1.2,0.6-2.5,0.9-3.7,0.9c-1.6,0-2.9-0.5-3.9-1.5
		c-0.9-1-1.4-2.3-1.4-4.1c0-1,0-2.1,0-3.4c0-1.3,0-2.3,0-2.9c0-1.1,0-2.4,0-4c0-1.6,0-2.5,0-2.7h2.8c0,0.2,0,1,0,2.6
		c0,1.6,0,2.8,0,3.7c0,0.8,0,1.8,0,3.1c0,1.2,0,2.1,0,2.6c0,1.4,0.3,2.4,0.7,3.1c0.5,0.7,1.2,1,2.2,1c1.1,0,2.2-0.3,3.5-0.9
		c1.3-0.6,2.2-1.1,2.8-1.5c0-0.1,0-0.8,0-2c0-1.2,0-2.6,0-4.4c0-1.2,0-2.7,0-4.5c0-1.7,0-2.7,0-2.8h2.8c0,0.2,0,0.9,0,2s0,3.1,0,5.8
		c0,1.5,0,2.9,0,4C69.8,91.1,69.8,93.1,69.8,96.1z"/>
	<path class="st2" d="M76.3,96.1h-2.8c0-0.2,0-1.8,0-4.8c0-3,0-6.1,0-9.2c0-1.3,0-3,0-5.1c0-2,0-2.4-0.1-5h2.8
		c0,2.1-0.1,2.5-0.1,5.3c0,2.8,0,4.4,0,5c0,1.2,0,3.8,0,7.7C76.2,93.9,76.3,95.9,76.3,96.1z M89,95.7l-1.7,1.6c-2.6-2.7-5-5-7-7
		c-2.1-2-3.2-3.1-3.4-3.3v0c0.3-0.3,1.5-1.5,3.7-3.8s4-4.1,5.4-5.6l1.7,1.8c-1.4,1.4-2.9,2.8-4.5,4.3s-2.5,2.5-2.9,2.8v0
		C83.8,90.3,86.7,93.3,89,95.7z"/>
</g>
</svg>
